<svg width="16" height="16" viewBox="0 0 16 16" fill="none" xmlns="http://www.w3.org/2000/svg">
<path fill-rule="evenodd" clip-rule="evenodd" d="M15 6.02999V9.96999C15.0006 10.5869 14.8381 11.1929 14.529 11.7268C14.2199 12.2606 13.7752 12.7033 13.24 13.01L9.74 15.01C9.21032 15.3135 8.61047 15.4732 8 15.4732C7.38953 15.4732 6.78968 15.3135 6.26 15.01L2.76 13.01C2.22476 12.7033 1.78008 12.2606 1.47101 11.7268C1.16193 11.1929 0.999445 10.5869 1 9.96999V6.02999C1.0012 5.41482 1.16453 4.81083 1.47351 4.27888C1.7825 3.74694 2.22623 3.30582 2.76 2.99999L6.26 0.999994C6.78968 0.696505 7.38953 0.536835 8 0.536835C8.61047 0.536835 9.21032 0.696505 9.74 0.999994L13.24 2.99999C13.7738 3.30582 14.2175 3.74694 14.5265 4.27888C14.8355 4.81083 14.9988 5.41482 15 6.02999Z" fill="#8C2F0D" fill-opacity="0.4"/>
<path d="M9.31 1.32999L9.49 1.42999L12.99 3.42999C13.4482 3.69219 13.8291 4.07066 14.0942 4.52717C14.3594 4.98368 14.4993 5.50207 14.5 6.02999V9.96999C14.4993 10.4979 14.3594 11.0163 14.0942 11.4728C13.8291 11.9293 13.4482 12.3078 12.99 12.57L9.49 14.57C9.03633 14.8296 8.5227 14.9662 8 14.9662C7.4773 14.9662 6.96367 14.8296 6.51 14.57L3.01 12.57C2.5518 12.3078 2.1709 11.9293 1.90577 11.4728C1.64064 11.0163 1.50067 10.4979 1.5 9.96999V6.02999C1.50067 5.50207 1.64064 4.98368 1.90577 4.52717C2.1709 4.07066 2.5518 3.69219 3.01 3.42999L6.51 1.42999C6.93334 1.18673 7.40966 1.05047 7.89761 1.03304C8.38556 1.01561 8.87038 1.11755 9.31 1.32999Z" stroke="#F8FAFC" stroke-opacity="0.1"/>
<path d="M5 10.6V5.60001H5.31142L8.11419 8.64925L10.6886 5.60001H11V10.6" stroke="#D25228" stroke-width="2" stroke-linecap="round" stroke-linejoin="round"/>
<path d="M5 10.6V5.60001H5.31142L8.11419 8.64925L10.6886 5.60001H11V10.6" stroke="#F8FAFC" stroke-opacity="0.1" stroke-width="2" stroke-linecap="round" stroke-linejoin="round"/>
</svg>
