<svg width="344" height="344" viewBox="0 0 344 344" fill="none" xmlns="http://www.w3.org/2000/svg">
<g clip-path="url(#clip0_3_2)">
<path d="M321.107 258.262C323.508 254.103 325 249.417 325 245.209V99.14C325 94.932 323.51 90.247 321.108 86.088L172 172.175L321.107 258.262Z" fill="#C44116"/>
<path d="M185.25 341.193L311.75 268.159C315.394 266.055 318.706 262.422 321.107 258.262L172 172.175L22.8931 258.263C25.2941 262.422 28.6071 266.056 32.2501 268.159L158.75 341.193C166.037 345.401 177.963 345.401 185.25 341.193Z" fill="#8C2F0D"/>
<path d="M321.108 86.087C318.706 81.927 315.393 78.294 311.75 76.19L185.25 3.156C177.963 -1.052 166.037 -1.052 158.75 3.156L32.25 76.19C24.962 80.397 19 90.725 19 99.14V245.209C19 249.417 20.491 254.103 22.893 258.262L172 172.175L321.108 86.087Z" fill="#D25228"/>
<path d="M100 238V106H107.5L175 186.5L237 106H244.5V238" stroke="white" stroke-width="43"/>
</g>
<defs>
<clipPath id="clip0_3_2">
<rect width="344" height="344" fill="white"/>
</clipPath>
</defs>
</svg>
